<mxfile host="app.diagrams.net" modified="2020-12-10T17:56:28.347Z" agent="5.0 (Windows NT 10.0; Win64; x64) AppleWebKit/537.36 (KHTML, like Gecko) Chrome/87.0.4280.88 Safari/537.36 Edg/87.0.664.57" etag="HsbxxiLrTcZsz6KvpPk-" version="14.0.0" type="github">
  <diagram id="F1kkNileE6Pv9NdHWYon" name="Page-1">
    <mxGraphModel dx="574" dy="330" grid="1" gridSize="10" guides="1" tooltips="1" connect="1" arrows="1" fold="1" page="1" pageScale="1" pageWidth="850" pageHeight="1100" math="0" shadow="0">
      <root>
        <mxCell id="0" />
        <mxCell id="1" parent="0" />
        <mxCell id="vZsmBDxL1KRu4pRQtlZr-1" value="&lt;font style=&quot;font-size: 18px&quot;&gt;&lt;b&gt;Change of Priors and posteriors during different stages of a Psychosis&lt;/b&gt;&lt;/font&gt;" style="text;html=1;align=center;verticalAlign=middle;resizable=0;points=[];autosize=1;" vertex="1" parent="1">
          <mxGeometry x="20" y="10" width="620" height="20" as="geometry" />
        </mxCell>
        <mxCell id="vZsmBDxL1KRu4pRQtlZr-2" value="Normal" style="text;html=1;align=center;verticalAlign=middle;resizable=0;points=[];autosize=1;" vertex="1" parent="1">
          <mxGeometry x="15" y="100" width="50" height="20" as="geometry" />
        </mxCell>
        <mxCell id="vZsmBDxL1KRu4pRQtlZr-3" value="Delusions" style="text;html=1;align=center;verticalAlign=middle;resizable=0;points=[];autosize=1;" vertex="1" parent="1">
          <mxGeometry x="10" y="180" width="70" height="20" as="geometry" />
        </mxCell>
        <mxCell id="vZsmBDxL1KRu4pRQtlZr-4" value="Hallucinations" style="text;html=1;align=center;verticalAlign=middle;resizable=0;points=[];autosize=1;" vertex="1" parent="1">
          <mxGeometry x="10" y="260" width="90" height="20" as="geometry" />
        </mxCell>
      </root>
    </mxGraphModel>
  </diagram>
</mxfile>
